<?xml version="1.0" standalone="no"?>
<!DOCTYPE svg PUBLIC "-//W3C//DTD SVG 20010904//EN"
 "http://www.w3.org/TR/2001/REC-SVG-20010904/DTD/svg10.dtd">
<svg version="1.0" xmlns="http://www.w3.org/2000/svg"
 width="400.000000pt" height="400.000000pt" viewBox="0 0 400.000000 400.000000"
 preserveAspectRatio="xMidYMid meet">
<metadata>
Created by potrace 1.11, written by Peter Selinger 2001-2013
</metadata>
<g transform="translate(0.000000,400.000000) scale(0.100000,-0.100000)"
fill="#000000" stroke="none">
<path d="M425 2646 c-50 -17 -96 -35 -103 -39 -9 -6 -12 -143 -12 -596 l0
-589 58 -20 c103 -38 175 -53 289 -59 178 -10 296 24 389 109 97 89 133 183
141 363 4 92 1 136 -11 185 -45 178 -152 286 -306 311 -103 16 -180 -2 -332
-79 -5 -2 -8 95 -8 217 0 121 -3 222 -7 224 -5 2 -49 -10 -98 -27z m411 -541
c92 -47 139 -149 132 -288 -9 -182 -99 -281 -254 -280 -39 1 -96 8 -127 17
l-57 17 0 227 0 228 33 32 c73 71 187 90 273 47z"/>
<path d="M2962 2310 c-73 -10 -165 -50 -205 -88 -53 -50 -69 -87 -74 -172 -7
-99 11 -153 69 -205 53 -48 86 -62 245 -100 142 -34 178 -52 193 -91 21 -53
-27 -105 -114 -125 -62 -14 -179 0 -274 31 -67 23 -68 22 -98 -65 -19 -56 -19
-57 1 -71 30 -22 162 -61 249 -73 180 -25 351 45 419 172 17 34 22 58 22 124
0 75 -3 85 -30 125 -38 53 -136 106 -251 132 -148 35 -184 47 -214 73 -57 48
-28 122 59 152 72 24 237 8 332 -33 13 -6 23 8 47 66 l31 73 -57 26 c-101 46
-233 65 -350 49z"/>
<path d="M1515 2293 c-38 -8 -101 -27 -140 -42 l-70 -28 -3 -432 -2 -431 105
0 105 0 0 359 0 359 65 17 c76 21 159 16 208 -12 l32 -19 3 -352 2 -352 105 0
105 0 2 352 3 353 40 19 c60 29 161 33 203 7 18 -12 37 -33 42 -47 6 -14 10
-165 10 -355 l0 -329 104 0 103 0 8 333 c8 364 2 432 -41 497 -49 73 -155 120
-275 120 -65 0 -190 -30 -249 -60 l-41 -21 -62 30 c-105 50 -232 62 -362 34z"/>
</g>
</svg>
